<?xml version="1.0" encoding="UTF-8"?>
<svg width="385px" height="239px" viewBox="0 0 385 239" version="1.1" xmlns="http://www.w3.org/2000/svg" xmlns:xlink="http://www.w3.org/1999/xlink">
    <!-- Generator: Sketch 61.2 (89653) - https://sketch.com -->
    <title>ticket</title>
    <desc>Created with Sketch.</desc>
    <g id="Page-1" stroke="none" stroke-width="1" fill="none" fill-rule="evenodd">
        <g id="Letter" transform="translate(0.000000, -1.000000)">
            <g id="ticket" transform="translate(0.000000, 1.000000)">
                <path d="M370.955634,238.989202 L13.556338,238.989202 C13.556338,231.502243 7.48695876,225.432864 0,225.432864 L0,13.556338 C7.48695876,13.556338 13.556338,7.48695876 13.556338,0 L370.955634,0 C370.955634,7.48695876 377.025013,13.556338 384.511972,13.556338 L384.511972,225.432864 C377.025013,225.432864 370.955634,231.502243 370.955634,238.989202 Z" id="Path" fill="#EDEAE2" fill-rule="nonzero"></path>
                <rect id="Rectangle" stroke="#74111B" stroke-width="1.5" x="18.0751174" y="18.0751174" width="348.361737" height="202.848005"></rect>
                <text id="Jorge-Manuel-Rodrigu" fill="#74111B" font-family="ArialMT, Arial" font-size="25" font-weight="normal">
                    <tspan x="125.748592" y="63.6961268">Jorge Manuel</tspan>
                    <tspan x="125.748592" y="92.5139979">Rodriguez Almazan</tspan>
                </text>
                <path d="M74.379108,33.4299296 C52.282597,33.4299296 34.3698357,51.3426909 34.3698357,73.4392019 C34.3698357,74.1350939 34.3698357,74.8219484 34.424061,75.5088028 C38.8854604,74.6223576 43.4522504,74.3909736 47.9803991,74.8219484 C46.5192925,70.5585781 48.4225109,65.8703237 52.4419052,63.831788 C56.4612995,61.7932522 61.3682839,63.0275428 63.9448105,66.7252002 C66.521337,70.4228575 65.9798533,75.4536392 62.6754695,78.5183099 L63.9949531,79.0786385 C70.7772205,82.0568146 77.982312,83.959471 85.3507042,84.7180751 L85.3507042,73.8007042 L84.2210094,73.8007042 C81.4158955,73.8007042 79.1419014,71.5267101 79.1419014,68.7215962 L79.1419014,66.8146714 C79.2067915,65.9267194 79.9461238,65.2394447 80.8364437,65.2394447 C81.7267635,65.2394447 82.4660959,65.9267194 82.5309859,66.8146714 L82.5309859,68.7215962 C82.5309859,69.6549704 83.2876352,70.4116197 84.2210094,70.4116197 L85.3507042,70.4116197 L85.3507042,60.1449531 C85.3043038,59.5100116 85.6167517,58.9024075 86.160191,58.570779 C86.7036303,58.2391506 87.3868627,58.2391506 87.9303019,58.570779 C88.4737412,58.9024075 88.7861892,59.5100116 88.7397887,60.1449531 L88.7397887,65.7211268 L90.4930751,64.9710094 C90.7004857,64.8788043 90.8347944,64.6738068 90.8365023,64.446831 L90.8365023,61.066784 C90.8365023,60.1334098 91.5931516,59.3767606 92.5265258,59.3767606 C93.4599,59.3767606 94.2165493,60.1334098 94.2165493,61.066784 L94.2165493,64.446831 C94.2095258,66.018671 93.273142,67.4374343 91.8306338,68.0618545 L89.1735915,69.2005869 C89.0354454,69.260557 88.8893175,69.3001333 88.7397887,69.3180751 L88.7397887,72.5444836 L89.6435446,72.00223 C90.4414427,71.5828155 91.4280018,71.8595099 91.8914231,72.632679 C92.3548444,73.4058482 92.1338091,74.4063492 91.3877934,74.9123239 L88.7578638,76.4758216 L88.7578638,76.4758216 L88.7578638,84.9620892 C91.8218112,85.147339 94.8941512,85.147339 97.9580986,84.9620892 L97.9580986,76.4396714 L96.3584507,75.7528169 C95.2986534,75.2997629 94.6120358,74.2573848 94.6142019,73.1048122 L94.6142019,70.6465962 C94.5742845,70.1806554 94.800295,69.7319783 95.1984653,69.4867138 C95.5966355,69.2414492 96.0990217,69.2414492 96.497192,69.4867138 C96.8953623,69.7319783 97.1213728,70.1806554 97.0814554,70.6465962 L97.0814554,73.1048122 C97.0802199,73.2711892 97.1804531,73.421539 97.334507,73.4843897 L97.9580986,73.7555164 L97.9580986,67.3478873 C98.0129702,66.7073912 98.5488831,66.2154271 99.1917254,66.2154271 C99.8345676,66.2154271 100.370481,66.7073912 100.425352,67.3478873 L100.425352,76.1504695 L101.24777,76.1504695 C101.931579,76.1504695 102.485915,75.5961328 102.485915,74.9123239 L102.485915,73.5205399 C102.540787,72.8800438 103.0767,72.3880797 103.719542,72.3880797 C104.362384,72.3880797 104.898297,72.8800438 104.953169,73.5205399 L104.953169,74.9123239 C104.948201,76.9566979 103.292144,78.6127549 101.24777,78.617723 L100.425352,78.617723 L100.425352,84.781338 C104.794578,84.3958186 109.125573,83.6583708 113.376174,82.5761737 C116.178546,70.6790096 113.388915,58.1534795 105.802484,48.5700632 C98.2160535,38.986647 86.6651281,33.3967398 74.4423709,33.3937793 L74.379108,33.4299296 Z" id="Path" fill="#FCAE2E" fill-rule="nonzero"></path>
                <path d="M65.4861564,71.9028169 C65.4903291,68.3147005 63.371439,65.0639437 60.0869278,63.6194429 C56.8024166,62.1749421 52.9744386,62.8103157 50.3327151,65.2384618 C47.6909917,67.6666079 46.7359198,71.4275855 47.899061,74.8219484 C52.9528427,75.3229703 57.9047584,76.5685629 62.5941315,78.5183099 C64.435367,76.8107036 65.4831047,74.4140035 65.4861564,71.9028169 L65.4861564,71.9028169 Z" id="Path" fill="#EDEAE2" fill-rule="nonzero"></path>
                <path d="M100.362089,78.6538732 L101.184507,78.6538732 C103.228881,78.6489051 104.884938,76.9928482 104.889906,74.9484742 L104.889906,73.5566901 C104.835035,72.916194 104.299122,72.42423 103.656279,72.42423 C103.013437,72.42423 102.477524,72.916194 102.422653,73.5566901 L102.422653,74.9484742 C102.422653,75.2768508 102.292205,75.591778 102.060008,75.8239753 C101.827811,76.0561726 101.512884,76.1866197 101.184507,76.1866197 L100.362089,76.1866197 L100.362089,67.3840376 C100.307218,66.7435415 99.7713047,66.2515774 99.1284624,66.2515774 C98.4856202,66.2515774 97.9497073,66.7435415 97.8948357,67.3840376 L97.8948357,73.7916667 L97.2712441,73.5205399 C97.1171902,73.4576892 97.016957,73.3073394 97.0181925,73.1409624 L97.0181925,70.6827465 C97.0581098,70.2168057 96.8320993,69.7681285 96.4339291,69.522864 C96.0357588,69.2775995 95.5333726,69.2775995 95.1352024,69.522864 C94.7370321,69.7681285 94.5110216,70.2168057 94.550939,70.6827465 L94.550939,73.1409624 C94.5487729,74.293535 95.2353905,75.3359131 96.2951878,75.7889671 L97.8948357,76.4758216 L97.8948357,84.9982394 C94.8308883,85.1834893 91.7585483,85.1834893 88.6946009,84.9982394 L88.6946009,76.5119718 L88.6946009,76.5119718 L91.3245305,74.9484742 C92.0705462,74.4424994 92.2915815,73.4419984 91.8281602,72.6688293 C91.3647389,71.8956601 90.3781797,71.6189658 89.5802817,72.0383803 L88.6765258,72.5806338 L88.6765258,69.3542254 C88.8260546,69.3362835 88.9721825,69.2967072 89.1103286,69.2367371 L91.7673709,68.0980047 C93.2098791,67.4735846 94.1462629,66.0548212 94.1532864,64.4829812 L94.1532864,61.1029343 C94.1532864,60.1695601 93.3966371,59.4129108 92.4632629,59.4129108 C91.5298887,59.4129108 90.7732394,60.1695601 90.7732394,61.1029343 L90.7732394,64.4829812 C90.7715315,64.709957 90.6372228,64.9149545 90.4298122,65.0071596 L88.6765258,65.757277 L88.6765258,60.1811033 C88.7229263,59.5461618 88.4104783,58.9385577 87.867039,58.6069293 C87.3235997,58.2753008 86.6403674,58.2753008 86.0969281,58.6069293 C85.5534888,58.9385577 85.2410408,59.5461618 85.2874413,60.1811033 L85.2874413,70.44777 L84.1577465,70.44777 C83.2243723,70.44777 82.467723,69.6911207 82.467723,68.7577465 L82.467723,66.8508216 C82.4028329,65.9628696 81.6635006,65.2755949 80.7731808,65.2755949 C79.8828609,65.2755949 79.1435286,65.9628696 79.0786385,66.8508216 L79.0786385,68.7577465 C79.0786385,71.5628604 81.3526326,73.8368545 84.1577465,73.8368545 L85.2874413,73.8368545 L85.2874413,84.7542254 C77.9232373,83.9822792 70.7243092,82.0674436 63.9497653,79.0786385 L62.6302817,78.5183099 C57.9409087,76.5685629 52.988993,75.3229703 47.9352113,74.8219484 C43.4070626,74.3909736 38.8402726,74.6223576 34.3788732,75.5088028 C35.4262374,95.3834167 50.9226046,111.466481 70.7446001,113.251346 C90.5665956,115.036211 108.686787,101.980139 113.267723,82.6123239 C109.017122,83.6945211 104.686127,84.4319688 100.316901,84.8174883 L100.362089,78.6538732 Z" id="Path" fill="#333333" fill-rule="nonzero"></path>
                <line x1="366.436854" y1="129.860681" x2="18.0751174" y2="129.860681" id="Path" stroke="#74111B" stroke-width="1.5"></line>
                <text id="Jun" fill="#FCAE2E" font-family="ArialMT, Arial" font-size="39.87" font-weight="normal">
                    <tspan x="265.866901" y="165.285446">Jun</tspan>
                </text>
                <text id="2020" fill="#FCAE2E" font-family="ArialMT, Arial" font-size="39" font-weight="normal">
                    <tspan x="257.412676" y="211.904343">2020</tspan>
                </text>
                <line x1="243.019953" y1="171.424413" x2="243.019953" y2="171.424413" id="Path" stroke="#FCAE2E" stroke-width="2.5" stroke-linecap="round" stroke-linejoin="round"></line>
                <line x1="249.328169" y1="171.424413" x2="347.114554" y2="171.424413" id="Path" stroke="#FCAE2E" stroke-width="2.5" stroke-linecap="round" stroke-linejoin="round" stroke-dasharray="0"></line>
                <line x1="350.268662" y1="171.424413" x2="350.268662" y2="171.424413" id="Path" stroke="#FCAE2E" stroke-width="2.5" stroke-linecap="round" stroke-linejoin="round"></line>
                <line x1="228.966549" y1="129.779343" x2="228.966549" y2="220.923122" id="Path" stroke="#74111B" stroke-width="1.5"></line>
                <line x1="229.065962" y1="187.655869" x2="18.4185446" y2="187.655869" id="Path" stroke="#74111B" stroke-width="1.5"></line>
                <text id="#-525425" fill="#333333" font-family="ArialMT, Arial" font-size="33.96" font-weight="normal">
                    <tspan x="53.2673709" y="171.976878"># 525425</tspan>
                </text>
                <text id="Sorteo-Chloe" fill="#333333" font-family="Helvetica" font-size="24" font-weight="normal">
                    <tspan x="59.0062207" y="213.683451">Sorteo Chloe</tspan>
                </text>
            </g>
        </g>
    </g>
</svg>